<?xml version="1.0" encoding="utf-8"?>
<!-- Generator: Adobe Illustrator 24.0.2, SVG Export Plug-In . SVG Version: 6.00 Build 0)  -->
<svg version="1.1" id="Capa_1" xmlns="http://www.w3.org/2000/svg" xmlns:xlink="http://www.w3.org/1999/xlink" x="0px" y="0px"
	 viewBox="0 0 448 512" style="enable-background:new 0 0 448 512;" xml:space="preserve">
<style type="text/css">
	.st0{fill:#EAA281;}
</style>
<g id="Capa_2_1_">
</g>
<g id="Capa_1_1_">
	<g>
		<path class="st0" d="M420,215.7c-38.5,0.1-76.1-11.9-107.4-34.3v156.4c0,78.5-63.7,142.2-142.3,142.2S28.1,416.1,28.1,337.6
			s63.7-142.2,142.3-142.2c6.5,0,13,0.5,19.5,1.3v78.7c-34.4-10.8-71.1,8.3-81.9,42.7s8.3,71.1,42.7,81.9s71.1-8.3,81.9-42.7
			c2-6.3,3-12.9,3-19.6V32h77c-0.1,6.5,0.5,13,1.6,19.4l0,0c5.4,28.9,22.5,54.3,47.2,70.2c17.4,11.5,37.8,17.6,58.6,17.6L420,215.7
			L420,215.7z"/>
	</g>
</g>
</svg>
